<svg width="21" height="20" viewBox="0 0 21 20" fill="none" xmlns="http://www.w3.org/2000/svg">
<path d="M9.49656 2.84013C10.097 2.09502 11.2321 2.09502 11.8325 2.84014L13.572 4.99887C14.0723 5.61968 14.7285 6.09643 15.4735 6.38036L18.0641 7.36764C18.9583 7.70841 19.3091 8.78801 18.786 9.58929L17.2704 11.9107C16.8346 12.5783 16.5839 13.3498 16.5441 14.146L16.4057 16.9149C16.3579 17.8707 15.4396 18.5379 14.5159 18.288L11.8397 17.564C11.0701 17.3558 10.259 17.3558 9.48938 17.564L6.81323 18.288C5.88952 18.5379 4.97115 17.8707 4.92338 16.9149L4.78496 14.146C4.74516 13.3498 4.49451 12.5783 4.05867 11.9107L2.54313 9.58929C2.02002 8.78801 2.37081 7.70841 3.26499 7.36764L5.8556 6.38036C6.60061 6.09643 7.25681 5.61968 7.75706 4.99887L9.49656 2.84013Z" stroke="#FF744D" stroke-width="3" stroke-linejoin="round"/>
</svg>
