<svg width="25" height="24" viewBox="0 0 25 24" fill="none" xmlns="http://www.w3.org/2000/svg">
<mask id="path-1-inside-1_1179_4" fill="white">
<path fill-rule="evenodd" clip-rule="evenodd" d="M12.8553 1.81257C11.851 1.66695 10.7857 2.02907 10.0848 2.89892L8.34528 5.05765C8.01179 5.47152 7.57432 5.78936 7.07764 5.97864L4.48703 6.96592C2.69867 7.64747 1.9971 9.80667 3.04331 11.4092L4.55886 13.7307C4.84942 14.1757 5.01651 14.69 5.04305 15.2209L5.18147 17.9898C5.27702 19.9012 7.11375 21.2357 8.96117 20.7359L11.6373 20.0119C12.0353 19.9042 12.4499 19.8801 12.8553 19.9394V1.81257Z"/>
</mask>
<path fill-rule="evenodd" clip-rule="evenodd" d="M12.8553 1.81257C11.851 1.66695 10.7857 2.02907 10.0848 2.89892L8.34528 5.05765C8.01179 5.47152 7.57432 5.78936 7.07764 5.97864L4.48703 6.96592C2.69867 7.64747 1.9971 9.80667 3.04331 11.4092L4.55886 13.7307C4.84942 14.1757 5.01651 14.69 5.04305 15.2209L5.18147 17.9898C5.27702 19.9012 7.11375 21.2357 8.96117 20.7359L11.6373 20.0119C12.0353 19.9042 12.4499 19.8801 12.8553 19.9394V1.81257Z" fill="#FF744D"/>
<path d="M10.0848 2.89892L7.7488 1.01658L7.7488 1.01658L10.0848 2.89892ZM12.8553 1.81257H15.8553C15.8553 0.322008 14.761 -0.942492 13.2858 -1.15638L12.8553 1.81257ZM8.34528 5.05765L10.6813 6.93998V6.93998L8.34528 5.05765ZM7.07764 5.97864L6.0093 3.17532L6.0093 3.17532L7.07764 5.97864ZM4.48703 6.96592L3.41869 4.1626H3.41869L4.48703 6.96592ZM3.04331 11.4092L5.55538 9.76925L3.04331 11.4092ZM4.55886 13.7307L7.07092 12.0907H7.07092L4.55886 13.7307ZM5.04305 15.2209L8.03931 15.0711V15.0711L5.04305 15.2209ZM5.18147 17.9898L2.18521 18.1396H2.18521L5.18147 17.9898ZM8.96117 20.7359L9.74461 23.6318L9.74461 23.6318L8.96117 20.7359ZM11.6373 20.0119L10.8539 17.116L10.8539 17.116L11.6373 20.0119ZM12.8553 19.9394L12.4208 22.9078C13.2831 23.034 14.1577 22.7791 14.817 22.2092C15.4764 21.6393 15.8553 20.8109 15.8553 19.9394H12.8553ZM12.4208 4.78125C12.4237 4.77762 12.4253 4.77608 12.4255 4.77594C12.4256 4.77578 12.425 4.77635 12.4237 4.77731C12.4208 4.77941 12.4179 4.78084 12.4161 4.78152C12.4147 4.78205 12.4152 4.78167 12.4176 4.78142C12.4201 4.78115 12.4227 4.78122 12.4249 4.78153L13.2858 -1.15638C11.293 -1.44533 9.15278 -0.725756 7.7488 1.01658L12.4208 4.78125ZM10.6813 6.93998L12.4208 4.78125L7.7488 1.01658L6.0093 3.17532L10.6813 6.93998ZM8.14599 8.78197C9.13933 8.40341 10.0143 7.76773 10.6813 6.93998L6.0093 3.17532L6.0093 3.17532L8.14599 8.78197ZM5.55538 9.76925L8.14599 8.78197L6.0093 3.17532L3.41869 4.1626L5.55538 9.76925ZM5.55538 9.76925L5.55538 9.76925L3.41869 4.1626C-0.158027 5.52568 -1.56118 9.8441 0.53125 13.0492L5.55538 9.76925ZM7.07092 12.0907L5.55538 9.76925L0.53125 13.0492L2.04679 15.3707L7.07092 12.0907ZM8.03931 15.0711C7.98623 14.0094 7.65204 12.9808 7.07092 12.0907L2.04679 15.3707L2.04679 15.3707L8.03931 15.0711ZM8.17773 17.84L8.03931 15.0711L2.04679 15.3707L2.18521 18.1396L8.17773 17.84ZM8.17772 17.84L8.17773 17.84L2.18521 18.1396C2.37631 21.9624 6.04977 24.6314 9.74461 23.6318L8.17772 17.84ZM10.8539 17.116L8.17772 17.84L9.74461 23.6318L12.4208 22.9078L10.8539 17.116ZM13.2899 16.9711C12.4791 16.8524 11.6498 16.9007 10.8539 17.116L12.4208 22.9078H12.4208L13.2899 16.9711ZM15.8553 19.9394V1.81257H9.85534V19.9394H15.8553Z" fill="#FF744D" mask="url(#path-1-inside-1_1179_4)"/>
<path d="M11.5425 3.84013C12.1429 3.09502 13.278 3.09502 13.8784 3.84014L15.6179 5.99887C16.1182 6.61968 16.7744 7.09643 17.5194 7.38036L20.11 8.36764C21.0042 8.70841 21.355 9.78801 20.8319 10.5893L19.3163 12.9107C18.8805 13.5783 18.6298 14.3498 18.59 15.146L18.4516 17.9149C18.4038 18.8707 17.4855 19.5379 16.5618 19.288L13.8856 18.564C13.116 18.3558 12.3049 18.3558 11.5353 18.564L8.85912 19.288C7.93542 19.5379 7.01705 18.8707 6.96928 17.9149L6.83086 15.146C6.79105 14.3498 6.54041 13.5783 6.10457 12.9107L4.58903 10.5893C4.06592 9.78801 4.4167 8.70841 5.31089 8.36764L7.9015 7.38036C8.6465 7.09643 9.30271 6.61968 9.80296 5.99887L11.5425 3.84013Z" stroke="#FF744D" stroke-width="3" stroke-linejoin="round"/>
</svg>
