<svg width="21" height="20" viewBox="0 0 21 20" fill="none" xmlns="http://www.w3.org/2000/svg">
<path d="M8.32857 1.89897C9.52939 0.408743 11.7997 0.408746 13.0005 1.89897L14.74 4.0577C15.0735 4.47157 15.511 4.78941 16.0077 4.97869L18.5983 5.96597C20.3867 6.64752 21.0882 8.80673 20.042 10.4093L18.5265 12.7307C18.2359 13.1758 18.0688 13.6901 18.0423 14.2209L17.9039 16.9898C17.8083 18.9013 15.9716 20.2357 14.1242 19.7359L11.448 19.0119C10.9349 18.8731 10.3942 18.8731 9.88111 19.0119L7.20495 19.7359C5.35753 20.2357 3.5208 18.9013 3.42525 16.9898L3.28683 14.2209C3.26029 13.6901 3.0932 13.1758 2.80264 12.7307L1.2871 10.4093C0.240883 8.80673 0.942455 6.64752 2.73082 5.96597L5.32142 4.97869C5.8181 4.78941 6.25557 4.47157 6.58906 4.0577L8.32857 1.89897Z" fill="#FF744D"/>
</svg>
