<svg width="32" height="32" viewBox="0 0 32 32" fill="none" xmlns="http://www.w3.org/2000/svg">
<path fill-rule="evenodd" clip-rule="evenodd" d="M13.6823 3.72554C14.7452 2.75718 16.2548 2.75718 17.3177 3.72554L25.4009 11.0901C26.2074 11.8249 26.5403 12.84 26.4961 13.8217C26.4987 13.8805 26.5 13.9397 26.5 13.9991V23.9991C26.5 26.2082 24.7091 27.9991 22.5 27.9991H8.5C6.29086 27.9991 4.5 26.2082 4.5 23.9991V13.9991C4.5 13.9397 4.5013 13.8805 4.50386 13.8217C4.45969 12.84 4.7926 11.8249 5.5991 11.0901L13.6823 3.72554ZM13.6667 14.9991C12.5621 14.9991 11.6667 15.8945 11.6667 16.9991V20.9991C11.6667 22.1037 12.5621 22.9991 13.6667 22.9991H17.6667C18.7712 22.9991 19.6667 22.1037 19.6667 20.9991V16.9991C19.6667 15.8945 18.7712 14.9991 17.6667 14.9991H13.6667Z" fill="#FF4D25"/>
</svg>
