<svg width="32" height="32" viewBox="0 0 32 32" fill="none" xmlns="http://www.w3.org/2000/svg">
<path d="M5.5 8.75C5.5 5.98858 7.73858 3.75 10.5 3.75H21.5C24.2614 3.75 26.5 5.98858 26.5 8.75V23.25C26.5 26.0114 24.2614 28.25 21.5 28.25H10.5C7.73858 28.25 5.5 26.0114 5.5 23.25V8.75Z" fill="#FF9D23"/>
<path d="M10.7501 13.3749C10.7501 12.4084 11.5336 11.6249 12.5001 11.6249H16.8751C17.8416 11.6249 18.6251 12.4084 18.6251 13.3749C18.6251 14.3414 17.8416 15.1249 16.8751 15.1249H12.5001C11.5336 15.1249 10.7501 14.3414 10.7501 13.3749Z" fill="#FFD65A"/>
<path d="M10.7501 19.5C10.7501 18.5335 11.5336 17.75 12.5001 17.75H20.3751C21.3416 17.75 22.1251 18.5335 22.1251 19.5C22.1251 20.4665 21.3416 21.25 20.3751 21.25H12.5001C11.5336 21.25 10.7501 20.4665 10.7501 19.5Z" fill="#FFD65A"/>
</svg>
