<svg width="3163" height="3380" viewBox="0 0 3163 3380" fill="none" xmlns="http://www.w3.org/2000/svg">
<path d="M519.958 2144.11C316.479 1647.95 553.748 1080.77 1049.91 877.295C1546.08 673.816 2113.25 911.085 2316.73 1407.25L2454.85 1744.03C2658.33 2240.19 2421.06 2807.37 1924.89 3010.85C1428.73 3214.33 861.552 2977.06 658.073 2480.89L519.958 2144.11Z" fill="#FF4D25"/>
<path d="M1751.86 2834.91C1764.02 2879.48 1737.76 2925.91 1692.2 2933.62C1569.32 2954.41 1443.01 2947.93 1322.32 2914.2C1201.63 2880.48 1090.25 2820.55 995.949 2739.07C960.985 2708.86 962.596 2655.55 996.099 2623.73C1029.6 2591.91 1082.27 2593.74 1117.95 2623.09C1190.9 2683.09 1275.79 2727.47 1367.35 2753.05C1458.91 2778.64 1554.5 2784.69 1647.99 2771.19C1693.72 2764.59 1739.71 2790.33 1751.86 2834.91Z" fill="#FF744D"/>
<path d="M1167.32 1586.64C1087.73 1392.57 1180.53 1170.74 1374.6 1091.15C1568.66 1011.56 1790.5 1104.37 1870.09 1298.43C1949.67 1492.5 1856.87 1714.33 1662.81 1793.92C1468.74 1873.51 1246.9 1780.7 1167.32 1586.64Z" fill="#FF744D"/>
<circle cx="1662.71" cy="1112.64" r="129.206" transform="rotate(-22.2987 1662.71 1112.64)" fill="#FF8569"/>
<rect width="309" height="237" rx="118.5" transform="matrix(-0.297893 0.954599 0.954599 0.297893 1427.02 365.92)" fill="#FFAB48"/>
<rect width="309" height="237" rx="118.5" transform="matrix(-0.297893 0.954599 0.954599 0.297893 780.055 572.008)" fill="#FFAB48"/>
<mask id="mask0_323_378" style="mask-type:alpha" maskUnits="userSpaceOnUse" x="720" y="708" width="1663" height="1027">
<rect x="669.231" y="968.76" width="1635.67" height="832.773" rx="300" transform="rotate(-10.9986 669.231 968.76)" fill="#FFA143"/>
</mask>
<g mask="url(#mask0_323_378)">
<rect x="669.231" y="968.76" width="1635.67" height="832.773" rx="300" transform="rotate(-10.9986 669.231 968.76)" fill="#FFAB48"/>
<circle cx="1943.66" cy="1144.91" r="313.69" transform="rotate(-10.9986 1943.66 1144.91)" fill="white"/>
<rect x="1732.79" y="999.479" width="268.877" height="373.441" rx="100" transform="rotate(-10.9986 1732.79 999.479)" fill="#0C1014"/>
<circle cx="1162.84" cy="1296.66" r="313.69" transform="rotate(-10.9986 1162.84 1296.66)" fill="white"/>
<rect x="1065.61" y="1129.15" width="268.877" height="373.441" rx="100" transform="rotate(-10.9986 1065.61 1129.15)" fill="#0C1014"/>
<path d="M2497.02 1462.62C2481.16 1381 2417.84 1312.07 2321 1271C2224.16 1229.93 2101.72 1220.08 1980.63 1243.61C1859.53 1267.15 1749.7 1322.14 1675.29 1396.5C1600.88 1470.85 1567.99 1558.48 1583.85 1640.1L2040.44 1551.36L2497.02 1462.62Z" fill="#FFAB48"/>
<path d="M1712.54 1618.14C1704.69 1577.73 1685.1 1540 1654.9 1507.13C1624.7 1474.25 1584.47 1446.86 1536.52 1426.52C1488.57 1406.19 1433.83 1393.3 1375.43 1388.6C1317.03 1383.9 1256.11 1387.48 1196.15 1399.14C1136.19 1410.79 1078.36 1430.29 1025.97 1456.52C973.583 1482.75 927.655 1515.2 890.812 1552.02C853.968 1588.84 826.929 1629.3 811.24 1671.1C795.551 1712.89 791.519 1755.21 799.374 1795.62L1255.96 1706.88L1712.54 1618.14Z" fill="#FFAB48"/>
</g>
</svg>
