<svg width="1942" height="2461" viewBox="0 0 1942 2461" fill="none" xmlns="http://www.w3.org/2000/svg">
<path d="M0 1126C0 589.732 434.732 155 971 155C1507.27 155 1942 589.732 1942 1126V1490C1942 2026.27 1507.27 2461 971 2461C434.732 2461 0 2026.27 0 1490V1126Z" fill="#FF4D25"/>
<path d="M877.666 2232.56C871.998 2278.42 830.086 2311.41 785.01 2301.25C663.431 2273.86 549.023 2219.94 450.157 2142.94C351.291 2065.95 270.985 1968.24 214.647 1857.07C193.759 1815.85 215.479 1767.14 258.55 1750.41C301.621 1733.68 349.655 1755.36 371.534 1796.05C416.263 1879.25 477.961 1952.52 552.966 2010.93C627.971 2069.34 714.118 2111.21 805.737 2134.2C850.553 2145.44 883.335 2186.7 877.666 2232.56Z" fill="#FF744D"/>
<path d="M810.472 855.843C810.472 646.093 980.508 476.057 1190.26 476.057C1400.01 476.057 1570.04 646.093 1570.04 855.843C1570.04 1065.59 1400.01 1235.63 1190.26 1235.63C980.508 1235.63 810.472 1065.59 810.472 855.843Z" fill="#FF744D"/>
<circle cx="1448.67" cy="605.262" r="129.206" fill="#FF8569"/>
<rect x="513" y="309" width="309" height="237" rx="118.5" transform="rotate(-90 513 309)" fill="#FFAB48"/>
<rect x="1192" y="309" width="309" height="237" rx="118.5" transform="rotate(-90 1192 309)" fill="#FFAB48"/>
<rect x="153" y="785" width="1635.67" height="832.773" rx="300" fill="#FFAB48"/>
<circle cx="1370.42" cy="1201.05" r="313.69" fill="white"/>
<rect x="1191.17" y="1018.07" width="268.877" height="373.441" rx="100" fill="#0C1014"/>
<circle cx="574.988" cy="1201.05" r="313.69" fill="white"/>
<rect x="511.503" y="1018.07" width="268.877" height="373.441" rx="100" fill="#0C1014"/>
</svg>
